<svg width="36" height="36" viewBox="0 0 36 36" fill="none" xmlns="http://www.w3.org/2000/svg">
<g clip-path="url(#clip0_4001_3766)">
<rect width="36" height="36" fill="white"/>
<path d="M7.94569 22L4.32169 13.6H6.42169L9.58969 21.04H8.35369L11.5697 13.6H13.5017L9.86569 22H7.94569ZM14.203 22V13.6H17.839C18.591 13.6 19.239 13.724 19.783 13.972C20.327 14.212 20.747 14.56 21.043 15.016C21.339 15.472 21.487 16.016 21.487 16.648C21.487 17.272 21.339 17.812 21.043 18.268C20.747 18.724 20.327 19.076 19.783 19.324C19.239 19.564 18.591 19.684 17.839 19.684H15.283L16.147 18.808V22H14.203ZM16.147 19.024L15.283 18.1H17.731C18.331 18.1 18.779 17.972 19.075 17.716C19.371 17.46 19.519 17.104 19.519 16.648C19.519 16.184 19.371 15.824 19.075 15.568C18.779 15.312 18.331 15.184 17.731 15.184H15.283L16.147 14.26V19.024ZM22.8749 22V13.6H24.4829L29.4389 19.648H28.6589V13.6H30.5789V22H28.9829L24.0149 15.952H24.7949V22H22.8749Z" fill="#1B1B1B"/>
<path d="M27 9L9 27M9 9L27 27" stroke="#F02121" stroke-opacity="0.75" stroke-width="1.25" stroke-linecap="round" stroke-linejoin="round"/>
</g>
<defs>
<clipPath id="clip0_4001_3766">
<rect width="36" height="36" fill="white"/>
</clipPath>
</defs>
</svg>
