<svg width="36" height="36" viewBox="0 0 36 36" fill="none" xmlns="http://www.w3.org/2000/svg">
<rect width="36" height="36" fill="white"/>
<g clip-path="url(#clip0_4001_3759)">
<path fill-rule="evenodd" clip-rule="evenodd" d="M6.30185 26.0623C6.24935 24.8675 7.10904 23.381 8.51107 22.8378L10.4883 22.8171L10.5436 22.8729C9.84841 23.7982 9.56248 24.6935 9.40404 25.2607C9.15982 26.1321 9.7481 26.8456 10.6603 26.6431C11.2983 26.501 12.2714 26.1514 13.1761 25.5031C13.1803 25.5068 13.1845 25.5106 13.1887 25.5139L13.1686 27.4779C12.6539 28.7651 11.3283 29.7228 9.97685 29.7668C10.162 29.0857 10.9279 27.5571 9.85591 28.2607C9.10404 28.7539 7.73951 29.5254 6.72888 29.3103C6.35904 27.38 8.83685 25.324 7.33404 25.6868C6.99748 25.7684 6.65154 25.9034 6.30185 26.0623Z" fill="#F02121"/>
<path fill-rule="evenodd" clip-rule="evenodd" d="M29.9069 6.06939C30.1033 6.22548 30.01 6.80204 29.8 7.48783C29.4967 8.47689 28.9806 9.78798 28.8292 10.1128C28.3445 11.1516 27.6663 12.27 26.8656 13.4077L22.6155 9.15751C23.7555 8.36158 24.8758 7.68564 25.9127 7.19814C26.2225 7.05236 27.4956 6.56017 28.4805 6.25501C29.1555 6.04595 29.7339 5.93204 29.9069 6.06939ZM26.2567 14.2458C25.3385 15.4706 24.2997 16.7006 23.2267 17.8594C21.4422 19.7869 19.5588 21.5236 17.9777 22.7236L17.9233 25.4386C17.9219 25.5042 17.8933 25.5652 17.8488 25.6097L13.5428 29.9166C13.4477 30.0117 13.2977 30.0164 13.2081 29.9269C13.1603 29.8791 13.1397 29.8144 13.1449 29.7497L13.1885 25.5141C13.1814 25.5085 13.1744 25.5024 13.1678 25.4958L10.488 22.8174L6.25611 22.861C6.19143 22.8661 6.12674 22.8455 6.07893 22.7977C5.98939 22.7081 5.99408 22.5581 6.08924 22.463L10.3956 18.1566C10.4406 18.1125 10.5016 18.0839 10.5672 18.0825L13.3305 18.0272C14.4494 16.4953 16.0886 14.7005 17.9271 12.9863C19.1514 11.8444 20.4658 10.7367 21.775 9.76408L26.2567 14.2458Z" fill="#1B1B1B"/>
<circle cx="20" cy="16" r="1" fill="#F02121"/>
</g>
<defs>
<clipPath id="clip0_4001_3759">
<rect width="24" height="23.9817" fill="white" transform="translate(6.01465 6.00916)"/>
</clipPath>
</defs>
</svg>
