<svg width="36" height="36" viewBox="0 0 36 36" fill="none" xmlns="http://www.w3.org/2000/svg">
<rect width="36" height="36" fill="white"/>
<path d="M8.32653 21.4082V23.3673C8.32653 23.4575 8.39963 23.5306 8.4898 23.5306H11.2245C11.3147 23.5306 11.3878 23.4575 11.3878 23.3673V21.4082C11.3878 21.318 11.4609 21.2449 11.551 21.2449H13.0833C13.2136 21.2449 13.2914 21.0998 13.2193 20.9913L9.97353 16.1039C9.90873 16.0064 9.76532 16.0067 9.70104 16.1046L6.49253 20.992C6.42126 21.1006 6.49914 21.2449 6.62902 21.2449H8.16327C8.25343 21.2449 8.32653 21.318 8.32653 21.4082Z" fill="#F02121" stroke="#F02121" stroke-width="0.816326"/>
<path d="M16.4898 19.4898V23.3674C16.4898 23.4575 16.5629 23.5306 16.6531 23.5306H19.3878C19.4779 23.5306 19.551 23.4575 19.551 23.3674V19.4898C19.551 19.3996 19.6241 19.3266 19.7143 19.3266H21.2466C21.3769 19.3266 21.4547 19.1815 21.3826 19.073L18.1368 14.1856C18.072 14.088 17.9286 14.0884 17.8643 14.1863L14.6558 19.0737C14.5845 19.1823 14.6624 19.3266 14.7923 19.3266H16.3265C16.4167 19.3266 16.4898 19.3996 16.4898 19.4898Z" fill="#1B1B1B" stroke="#1B1B1B" stroke-width="0.816326"/>
<path d="M24.6531 16.8367V23.4082C24.6531 23.4983 24.7262 23.5714 24.8163 23.5714H27.551C27.6412 23.5714 27.7143 23.4983 27.7143 23.4082V16.8367C27.7143 16.7466 27.7874 16.6735 27.8776 16.6735H29.4099C29.5401 16.6735 29.6179 16.5284 29.5459 16.4199L26.3001 11.5325C26.2353 11.4349 26.0918 11.4353 26.0276 11.5332L22.8191 16.4206C22.7478 16.5292 22.8257 16.6735 22.9555 16.6735H24.4898C24.58 16.6735 24.6531 16.7466 24.6531 16.8367Z" fill="#1B1B1B" stroke="#1B1B1B" stroke-width="0.816326"/>
<path d="M8.28571 25.0408H27.7145" stroke="#1B1B1B" stroke-width="0.979592" stroke-linecap="round"/>
</svg>
