<svg width="260" height="90" viewBox="0 0 260 90" fill="none" xmlns="http://www.w3.org/2000/svg">
<g clip-path="url(#clip0_66_2)">
<path d="M91.8415 11.2839C92.8864 9.29877 94.767 5.74643 96.5432 3.02993L87.0354 0C86.4086 2.71649 84.7369 6.47779 83.6921 8.25395C78.886 17.8662 68.1245 33.5383 50.2583 44.7177L57.154 50.0462C73.8709 38.5533 85.6772 22.7768 91.8415 11.2839Z" fill="white"/>
<path d="M119.684 53.1271C119.684 68.7948 106.983 81.496 91.3152 81.496C75.6476 81.496 62.9464 68.7948 62.9464 53.1271C62.9464 37.4595 75.6476 24.7583 91.3152 24.7583C106.983 24.7583 119.684 37.4595 119.684 53.1271Z" fill="#F02121"/>
<path fill-rule="evenodd" clip-rule="evenodd" d="M105.994 51.4004C98.6193 46.2713 90.8236 41.19 84.0055 37.1951L78.2591 43.046C84.9442 47.1971 92.9366 52.628 100.428 58.1183C91.0827 68.2204 77.7376 77.85 60.0795 83.1665L67.4976 89.7488C85.2403 83.212 97.9752 73.5871 107.269 63.2611C111.641 66.6386 115.596 69.89 118.693 72.7185L124.857 65.4048C121.485 62.6798 117.391 59.5663 112.942 56.3354C120.83 45.7078 126.508 33.3808 129.35 23.7171C129.872 22.0454 130.917 19.6423 131.753 18.1796L124.857 14.0004C123.185 14.6273 120.887 14.9407 118.067 14.9407H89.7708H84.8413L81.498 22.4633H84.8538H120.155C118.045 30.9968 112.711 42.2703 105.994 51.4004Z" fill="white"/>
<path d="M23.3743 57.3567H7.77665L4.92945 63.9589H0.431702L13.3885 35.0742H18.0101L30.9669 63.9589H26.2215L23.3743 57.3567ZM21.7651 53.5604L15.6168 39.3244L9.4272 53.5604H21.7651Z" fill="white"/>
<path d="M39.2101 35.0742V63.9589H35.0837V35.0742H39.2101Z" fill="white"/>
<path d="M149.199 64.3715C145.843 64.3715 143.009 63.5462 140.699 61.8957C138.416 60.2176 137.026 57.8931 136.531 54.9221H140.657C141.345 56.8203 142.377 58.2095 143.752 59.0898C145.155 59.97 147.012 60.4102 149.323 60.4102C151.551 60.4102 153.353 60.0113 154.728 59.2136C156.103 58.3883 156.792 57.3291 156.792 56.0362C156.792 54.9084 156.283 54.0006 155.265 53.3128C154.247 52.5976 152.569 52.0061 150.231 51.5385L147.095 50.9608C143.821 50.3831 141.372 49.3928 139.75 47.9898C138.127 46.5593 137.315 44.7988 137.315 42.708C137.315 41.1125 137.797 39.7095 138.759 38.4991C139.722 37.2888 141.07 36.3534 142.803 35.6932C144.536 35.0054 146.53 34.6616 148.786 34.6616C151.729 34.6616 154.288 35.3906 156.461 36.8486C158.635 38.2791 160.065 40.301 160.753 42.9143H156.42C155.87 41.5114 154.88 40.4522 153.449 39.737C152.046 38.9943 150.424 38.6229 148.58 38.6229C146.406 38.6229 144.688 39.008 143.422 39.7783C142.184 40.5211 141.565 41.5526 141.565 42.8731C141.565 43.9459 142.06 44.8125 143.051 45.4727C144.069 46.1329 145.664 46.6556 147.837 47.0407L150.973 47.5772C154.439 48.1549 156.984 49.1452 158.607 50.5482C160.23 51.9511 161.042 53.753 161.042 55.9537C161.042 57.6043 160.533 59.0622 159.515 60.3277C158.525 61.5931 157.135 62.5835 155.347 63.2987C153.56 64.0139 151.51 64.3715 149.199 64.3715Z" fill="white"/>
<path d="M178.181 64.3715C175.814 64.3715 173.668 63.8488 171.743 62.8035C169.845 61.7306 168.345 60.2589 167.246 58.3883C166.145 56.5177 165.595 54.4407 165.595 52.1574V35.0742H169.722V52.1574C169.722 53.6979 170.093 55.1009 170.836 56.3663C171.578 57.6318 172.582 58.6221 173.848 59.3373C175.141 60.0525 176.585 60.4102 178.181 60.4102C179.775 60.4102 181.206 60.0525 182.472 59.3373C183.765 58.6221 184.783 57.6318 185.526 56.3663C186.268 55.1009 186.64 53.6979 186.64 52.1574V35.0742H190.766V52.1574C190.766 54.4407 190.215 56.5177 189.116 58.3883C188.015 60.2589 186.501 61.7306 184.576 62.8035C182.678 63.8488 180.546 64.3715 178.181 64.3715Z" fill="white"/>
<path d="M223.345 35.0742V63.9589H218.806L201.888 40.4798V63.9589H197.761V35.0742H202.837L219.219 57.9344V35.0742H223.345Z" fill="white"/>
<path d="M243.969 64.3715C241.19 64.3715 238.645 63.725 236.335 62.4321C234.024 61.1117 232.208 59.3236 230.888 57.0678C229.567 54.7846 228.907 52.2675 228.907 49.5166C228.907 46.7656 229.567 44.2623 230.888 42.0065C232.208 39.7233 234.024 37.9352 236.335 36.6423C238.645 35.3218 241.19 34.6616 243.969 34.6616C246.747 34.6616 249.292 35.3218 251.602 36.6423C253.913 37.9352 255.729 39.7233 257.049 42.0065C258.37 44.2623 259.03 46.7656 259.03 49.5166C259.03 52.2675 258.37 54.7846 257.049 57.0678C255.729 59.3236 253.913 61.1117 251.602 62.4321C249.292 63.725 246.747 64.3715 243.969 64.3715ZM243.969 60.4102C245.949 60.4102 247.751 59.9288 249.374 58.966C251.025 58.0032 252.317 56.6965 253.253 55.0459C254.215 53.3678 254.697 51.5248 254.697 49.5166C254.697 47.5084 254.215 45.679 253.253 44.0285C252.317 42.3504 251.025 41.0299 249.374 40.0671C247.751 39.1044 245.949 38.6229 243.969 38.6229C241.988 38.6229 240.172 39.1044 238.522 40.0671C236.899 41.0299 235.605 42.3504 234.643 44.0285C233.707 45.679 233.24 47.5084 233.24 49.5166C233.24 51.5248 233.707 53.3678 234.643 55.0459C235.605 56.6965 236.899 58.0032 238.522 58.966C240.172 59.9288 241.988 60.4102 243.969 60.4102Z" fill="white"/>
</g>
<defs>
<clipPath id="clip0_66_2">
<rect width="260" height="89.7487" fill="white"/>
</clipPath>
</defs>
</svg>
