<svg width="297" height="240" viewBox="0 0 297 240" fill="none" xmlns="http://www.w3.org/2000/svg">
<rect width="297" height="240" fill="#D9D9D9"/>
<path d="M221.445 120.08H222.741V125.642L227.529 120.08H228.267V128H226.971V122.384L222.129 128H221.445V120.08Z" fill="black"/>
<path d="M211.918 120.08H213.214V125.642L218.002 120.08H218.74V128H217.444V122.384L212.602 128H211.918V120.08Z" fill="black"/>
<path d="M209.121 128H202.443V120.08H203.739V126.83H207.537V120.08H208.833V126.83H210.291V129.98H209.121V128Z" fill="black"/>
<path d="M195.646 128.144C195.142 128.144 194.657 128.054 194.189 127.874C193.721 127.682 193.313 127.412 192.965 127.064C192.617 126.704 192.334 126.272 192.118 125.768C191.914 125.252 191.812 124.676 191.812 124.04C191.812 123.416 191.909 122.852 192.101 122.348C192.305 121.832 192.58 121.4 192.928 121.052C193.276 120.692 193.684 120.416 194.152 120.224C194.62 120.032 195.118 119.936 195.646 119.936C196.402 119.936 197.027 120.098 197.519 120.422C198.023 120.734 198.359 121.088 198.527 121.484V120.08H199.751V128H198.527V126.524C198.299 126.992 197.932 127.382 197.428 127.694C196.924 127.994 196.33 128.144 195.646 128.144ZM195.773 126.938C196.205 126.938 196.588 126.86 196.924 126.704C197.26 126.536 197.537 126.32 197.753 126.056C197.981 125.78 198.155 125.474 198.275 125.138C198.395 124.79 198.454 124.442 198.454 124.094V123.806C198.442 123.458 198.377 123.128 198.257 122.816C198.137 122.492 197.962 122.21 197.734 121.97C197.518 121.718 197.248 121.52 196.924 121.376C196.6 121.22 196.229 121.142 195.809 121.142C195.425 121.142 195.071 121.208 194.747 121.34C194.435 121.46 194.159 121.646 193.919 121.898C193.679 122.138 193.493 122.438 193.361 122.798C193.229 123.158 193.163 123.566 193.163 124.022C193.163 124.898 193.403 125.606 193.883 126.146C194.363 126.674 194.993 126.938 195.773 126.938Z" fill="black"/>
<path d="M182.369 132.32V120.08H183.593V121.484C183.761 121.088 184.091 120.734 184.583 120.422C185.075 120.098 185.705 119.936 186.473 119.936C187.001 119.936 187.499 120.032 187.967 120.224C188.435 120.416 188.843 120.692 189.191 121.052C189.539 121.4 189.809 121.832 190.001 122.348C190.205 122.852 190.307 123.416 190.307 124.04C190.307 124.676 190.199 125.252 189.983 125.768C189.779 126.272 189.503 126.704 189.155 127.064C188.807 127.412 188.399 127.682 187.931 127.874C187.463 128.054 186.977 128.144 186.473 128.144C185.825 128.144 185.255 128.006 184.763 127.73C184.271 127.454 183.905 127.1 183.665 126.668V132.32H182.369ZM186.311 121.142C185.891 121.142 185.519 121.22 185.195 121.376C184.871 121.52 184.595 121.718 184.367 121.97C184.139 122.21 183.965 122.492 183.845 122.816C183.737 123.128 183.677 123.458 183.665 123.806V124.094C183.665 124.442 183.725 124.79 183.845 125.138C183.965 125.474 184.133 125.78 184.349 126.056C184.577 126.32 184.859 126.536 185.195 126.704C185.531 126.86 185.915 126.938 186.347 126.938C187.127 126.938 187.757 126.674 188.237 126.146C188.717 125.606 188.957 124.898 188.957 124.022C188.957 123.566 188.891 123.158 188.759 122.798C188.627 122.438 188.441 122.138 188.201 121.898C187.961 121.646 187.679 121.46 187.355 121.34C187.031 121.208 186.683 121.142 186.311 121.142Z" fill="black"/>
<path d="M176.493 128.144C175.905 128.144 175.359 128.048 174.855 127.856C174.363 127.664 173.931 127.394 173.559 127.046C173.199 126.686 172.911 126.254 172.695 125.75C172.491 125.246 172.389 124.676 172.389 124.04C172.389 123.38 172.497 122.798 172.713 122.294C172.941 121.778 173.241 121.346 173.613 120.998C173.997 120.65 174.429 120.386 174.909 120.206C175.401 120.026 175.911 119.936 176.439 119.936C177.051 119.936 177.591 120.05 178.059 120.278C178.539 120.494 178.941 120.788 179.265 121.16C179.589 121.532 179.835 121.952 180.003 122.42C180.171 122.888 180.255 123.362 180.255 123.842V124.292H173.685C173.721 124.712 173.817 125.09 173.973 125.426C174.129 125.75 174.333 126.032 174.585 126.272C174.849 126.5 175.149 126.674 175.485 126.794C175.821 126.914 176.181 126.974 176.565 126.974C177.069 126.974 177.537 126.878 177.969 126.686C178.413 126.482 178.767 126.206 179.031 125.858L179.877 126.632C179.493 127.148 178.995 127.532 178.383 127.784C177.783 128.024 177.153 128.144 176.493 128.144ZM176.313 121.106C175.677 121.106 175.131 121.292 174.675 121.664C174.219 122.036 173.919 122.546 173.775 123.194H178.905C178.785 122.582 178.485 122.084 178.005 121.7C177.537 121.304 176.973 121.106 176.313 121.106Z" fill="black"/>
<path d="M168.981 124.364H164.751V128H163.455V120.08H164.751V123.194H168.981V120.08H170.277V128H168.981V124.364Z" fill="black"/>
<path d="M157.579 128.144C156.991 128.144 156.445 128.048 155.941 127.856C155.449 127.664 155.017 127.394 154.645 127.046C154.285 126.686 153.997 126.254 153.781 125.75C153.577 125.246 153.475 124.676 153.475 124.04C153.475 123.38 153.583 122.798 153.799 122.294C154.027 121.778 154.327 121.346 154.699 120.998C155.083 120.65 155.515 120.386 155.995 120.206C156.487 120.026 156.997 119.936 157.525 119.936C158.137 119.936 158.677 120.05 159.145 120.278C159.625 120.494 160.027 120.788 160.351 121.16C160.675 121.532 160.921 121.952 161.089 122.42C161.257 122.888 161.341 123.362 161.341 123.842V124.292H154.771C154.807 124.712 154.903 125.09 155.059 125.426C155.215 125.75 155.419 126.032 155.671 126.272C155.935 126.5 156.235 126.674 156.571 126.794C156.907 126.914 157.267 126.974 157.651 126.974C158.155 126.974 158.623 126.878 159.055 126.686C159.499 126.482 159.853 126.206 160.117 125.858L160.963 126.632C160.579 127.148 160.081 127.532 159.469 127.784C158.869 128.024 158.239 128.144 157.579 128.144ZM157.399 121.106C156.763 121.106 156.217 121.292 155.761 121.664C155.305 122.036 155.005 122.546 154.861 123.194H159.991C159.871 122.582 159.571 122.084 159.091 121.7C158.623 121.304 158.059 121.106 157.399 121.106Z" fill="black"/>
<path d="M147.441 120.08H152.553V121.25H148.737V128H147.441V120.08Z" fill="black"/>
<path d="M137.074 121.25H134.482V120.08H140.962V121.25H138.37V128H137.074V121.25Z" fill="black"/>
<path d="M128.586 128.144C128.082 128.144 127.596 128.054 127.128 127.874C126.66 127.682 126.252 127.412 125.904 127.064C125.556 126.704 125.274 126.272 125.058 125.768C124.854 125.252 124.752 124.676 124.752 124.04C124.752 123.416 124.848 122.852 125.04 122.348C125.244 121.832 125.52 121.4 125.868 121.052C126.216 120.692 126.624 120.416 127.092 120.224C127.56 120.032 128.058 119.936 128.586 119.936C129.342 119.936 129.966 120.098 130.458 120.422C130.962 120.734 131.298 121.088 131.466 121.484V120.08H132.69V128H131.466V126.524C131.238 126.992 130.872 127.382 130.368 127.694C129.864 127.994 129.27 128.144 128.586 128.144ZM128.712 126.938C129.144 126.938 129.528 126.86 129.864 126.704C130.2 126.536 130.476 126.32 130.692 126.056C130.92 125.78 131.094 125.474 131.214 125.138C131.334 124.79 131.394 124.442 131.394 124.094V123.806C131.382 123.458 131.316 123.128 131.196 122.816C131.076 122.492 130.902 122.21 130.674 121.97C130.458 121.718 130.188 121.52 129.864 121.376C129.54 121.22 129.168 121.142 128.748 121.142C128.364 121.142 128.01 121.208 127.686 121.34C127.374 121.46 127.098 121.646 126.858 121.898C126.618 122.138 126.432 122.438 126.3 122.798C126.168 123.158 126.102 123.566 126.102 124.022C126.102 124.898 126.342 125.606 126.822 126.146C127.302 126.674 127.932 126.938 128.712 126.938Z" fill="black"/>
<path d="M120.112 121.25H117.52V120.08H124V121.25H121.408V128H120.112V121.25Z" fill="black"/>
<path d="M110.844 120.08H112.14V122.762H113.922C114.978 122.762 115.776 122.966 116.316 123.374C116.856 123.782 117.126 124.442 117.126 125.354C117.126 126.242 116.856 126.908 116.316 127.352C115.776 127.784 114.918 128 113.742 128H110.844V120.08ZM113.49 126.83C113.814 126.83 114.12 126.812 114.408 126.776C114.696 126.74 114.942 126.668 115.146 126.56C115.362 126.452 115.53 126.302 115.65 126.11C115.77 125.918 115.83 125.666 115.83 125.354C115.83 124.802 115.632 124.43 115.236 124.238C114.84 124.034 114.306 123.932 113.634 123.932H112.14V126.83H113.49Z" fill="black"/>
<path d="M101.523 128.108C101.427 128.108 101.355 128.102 101.307 128.09C101.271 128.09 101.241 128.084 101.217 128.072V126.74C101.265 126.752 101.307 126.758 101.343 126.758C101.379 126.758 101.409 126.758 101.433 126.758C101.601 126.758 101.763 126.704 101.919 126.596C102.087 126.476 102.231 126.26 102.351 125.948C102.483 125.624 102.585 125.174 102.657 124.598C102.741 124.022 102.783 123.272 102.783 122.348V120.08H108.147V128H106.851V121.25H104.025V122.996C104.025 123.992 103.959 124.82 103.827 125.48C103.707 126.128 103.533 126.65 103.305 127.046C103.077 127.43 102.813 127.706 102.513 127.874C102.213 128.03 101.883 128.108 101.523 128.108Z" fill="black"/>
<path d="M95.1252 132.14L96.7272 127.892L93.4512 120.26V120.08H94.8012L97.3752 126.164L99.6612 120.08H100.921V120.26L96.3852 132.32H95.1252V132.14Z" fill="black"/>
<path d="M89.4684 128.144C89.0364 128.144 88.6524 128.102 88.3164 128.018C87.9804 127.934 87.6804 127.832 87.4164 127.712C87.1644 127.58 86.9484 127.436 86.7684 127.28C86.5884 127.124 86.4384 126.974 86.3184 126.83L87.1464 125.966C87.3864 126.266 87.6924 126.512 88.0644 126.704C88.4364 126.884 88.8984 126.974 89.4504 126.974C90.1104 126.974 90.6144 126.842 90.9624 126.578C91.3224 126.314 91.5024 125.972 91.5024 125.552C91.5024 125.18 91.3524 124.886 91.0524 124.67C90.7644 124.442 90.3144 124.328 89.7024 124.328H88.5504V123.14H89.4864C89.9664 123.14 90.3504 123.068 90.6384 122.924C90.9264 122.768 91.0704 122.516 91.0704 122.168C91.0704 121.844 90.9144 121.586 90.6024 121.394C90.2904 121.202 89.8884 121.106 89.3964 121.106C88.9884 121.106 88.6164 121.178 88.2804 121.322C87.9444 121.454 87.6324 121.652 87.3444 121.916L86.7504 120.89C87.0624 120.626 87.4284 120.404 87.8484 120.224C88.2684 120.032 88.7964 119.936 89.4324 119.936C90.3324 119.936 91.0344 120.134 91.5384 120.53C92.0544 120.914 92.3124 121.406 92.3124 122.006C92.3124 122.39 92.2044 122.732 91.9884 123.032C91.7844 123.32 91.4964 123.53 91.1244 123.662C91.6644 123.83 92.0724 124.1 92.3484 124.472C92.6364 124.832 92.7804 125.252 92.7804 125.732C92.7804 126.416 92.4864 126.992 91.8984 127.46C91.3224 127.916 90.5124 128.144 89.4684 128.144Z" fill="black"/>
<path d="M81.6235 128.144C81.0355 128.144 80.4895 128.048 79.9855 127.856C79.4935 127.664 79.0615 127.394 78.6895 127.046C78.3295 126.686 78.0415 126.254 77.8255 125.75C77.6215 125.246 77.5195 124.676 77.5195 124.04C77.5195 123.38 77.6275 122.798 77.8435 122.294C78.0715 121.778 78.3715 121.346 78.7435 120.998C79.1275 120.65 79.5595 120.386 80.0395 120.206C80.5315 120.026 81.0415 119.936 81.5695 119.936C82.1815 119.936 82.7215 120.05 83.1895 120.278C83.6695 120.494 84.0715 120.788 84.3955 121.16C84.7195 121.532 84.9655 121.952 85.1335 122.42C85.3015 122.888 85.3855 123.362 85.3855 123.842V124.292H78.8155C78.8515 124.712 78.9475 125.09 79.1035 125.426C79.2595 125.75 79.4635 126.032 79.7155 126.272C79.9795 126.5 80.2795 126.674 80.6155 126.794C80.9515 126.914 81.3115 126.974 81.6955 126.974C82.1995 126.974 82.6675 126.878 83.0995 126.686C83.5435 126.482 83.8975 126.206 84.1615 125.858L85.0075 126.632C84.6235 127.148 84.1255 127.532 83.5135 127.784C82.9135 128.024 82.2835 128.144 81.6235 128.144ZM81.4435 121.106C80.8075 121.106 80.2615 121.292 79.8055 121.664C79.3495 122.036 79.0495 122.546 78.9055 123.194H84.0355C83.9155 122.582 83.6155 122.084 83.1355 121.7C82.6675 121.304 82.1035 121.106 81.4435 121.106Z" fill="black"/>
<path d="M72.9669 115.4C73.5789 115.4 74.1369 115.496 74.6409 115.688C75.1449 115.88 75.5709 116.144 75.9189 116.48C76.2789 116.804 76.5549 117.194 76.7469 117.65C76.9389 118.094 77.0349 118.568 77.0349 119.072C77.0349 119.588 76.9389 120.074 76.7469 120.53C76.5549 120.986 76.2789 121.382 75.9189 121.718C75.5709 122.054 75.1449 122.324 74.6409 122.528C74.1369 122.72 73.5789 122.816 72.9669 122.816H70.8789V128H69.5469V115.4H72.9669ZM72.8769 121.556C73.3209 121.556 73.7109 121.496 74.0469 121.376C74.3949 121.244 74.6889 121.07 74.9289 120.854C75.1689 120.626 75.3489 120.362 75.4689 120.062C75.6009 119.762 75.6669 119.444 75.6669 119.108C75.6669 118.772 75.6009 118.46 75.4689 118.172C75.3489 117.872 75.1689 117.614 74.9289 117.398C74.6889 117.17 74.3949 116.99 74.0469 116.858C73.7109 116.726 73.3209 116.66 72.8769 116.66H70.8789V121.556H72.8769Z" fill="black"/>
</svg>
