<svg width="48" height="48" viewBox="0 0 48 48" fill="none" xmlns="http://www.w3.org/2000/svg">
<mask id="mask0_75_168" style="mask-type:luminance" maskUnits="userSpaceOnUse" x="2" y="4" width="41" height="38">
<path d="M42.514 4H2V41.82H42.514V4Z" fill="white"/>
</mask>
<g mask="url(#mask0_75_168)">
<path d="M23.6039 26.6723C25.7113 26.6723 27.4197 24.964 27.4197 22.8567C27.4197 20.7492 25.7113 19.0409 23.6039 19.0409C21.4965 19.0409 19.7882 20.7492 19.7882 22.8567C19.7882 24.964 21.4965 26.6723 23.6039 26.6723Z" fill="white"/>
<path d="M30.8392 23.329C30.8392 27.9683 29.9494 32.1259 28.5491 35.0911C27.1171 38.1236 25.3101 39.619 23.6053 39.619C21.9004 39.619 20.0934 38.1236 18.6614 35.0911C17.2612 32.1259 16.3713 27.9683 16.3713 23.329C16.3713 18.6896 17.2612 14.5321 18.6614 11.5668C20.0934 8.53433 21.9004 7.03894 23.6053 7.03894C25.3101 7.03894 27.1171 8.53433 28.5491 11.5668C29.9494 14.5321 30.8392 18.6896 30.8392 23.329Z" stroke="white" stroke-width="1.73782"/>
<path d="M27.2209 17.0532C31.2387 19.3729 34.3943 22.2223 36.2622 24.9176C38.1724 27.674 38.564 29.9866 37.7116 31.463C36.8591 32.9395 34.6605 33.7567 31.3184 33.4806C28.0502 33.2106 24.0047 31.9024 19.987 29.5828C15.9692 27.2631 12.8135 24.4137 10.9457 21.7184C9.03552 18.9621 8.64392 16.6494 9.49633 15.173C10.3487 13.6965 12.5474 12.8793 15.8895 13.1554C19.1577 13.4254 23.2031 14.7336 27.2209 17.0532Z" stroke="white" stroke-width="1.73782"/>
<path d="M19.986 17.0779C24.0038 14.7582 28.0493 13.45 31.3174 13.1801C34.6595 12.904 36.8582 13.7212 37.7106 15.1977C38.563 16.6741 38.1715 18.9868 36.2612 21.7431C34.3934 24.4384 31.2377 27.2878 27.2199 29.6075C23.2022 31.9271 19.1567 33.2353 15.8885 33.5053C12.5464 33.7814 10.3478 32.9642 9.49541 31.4877C8.64292 30.0112 9.03452 27.6986 10.9447 24.9422C12.8125 22.2469 15.9683 19.3976 19.986 17.0779Z" stroke="white" stroke-width="1.73782"/>
<path d="M29.3228 14.7424C31.1655 14.7424 32.6593 13.2486 32.6593 11.4059C32.6593 9.5632 31.1655 8.0694 29.3228 8.0694C27.4801 8.0694 25.9863 9.5632 25.9863 11.4059C25.9863 13.2486 27.4801 14.7424 29.3228 14.7424Z" fill="white" stroke="#9A9A9A" stroke-width="1.90655"/>
<path d="M8.35136 31.9074C10.194 31.9074 11.6878 30.4137 11.6878 28.571C11.6878 26.7284 10.194 25.2346 8.35136 25.2346C6.50868 25.2346 5.01489 26.7284 5.01489 28.571C5.01489 30.4137 6.50868 31.9074 8.35136 31.9074Z" fill="white" stroke="#9A9A9A" stroke-width="1.90655"/>
<path d="M35.996 37.6322C37.8386 37.6322 39.3324 36.1384 39.3324 34.2957C39.3324 32.453 37.8386 30.9592 35.996 30.9592C34.1533 30.9592 32.6595 32.453 32.6595 34.2957C32.6595 36.1384 34.1533 37.6322 35.996 37.6322Z" fill="white" stroke="#9A9A9A" stroke-width="1.90655"/>
</g>
</svg>
