<svg width="46" height="46" viewBox="0 0 46 46" xmlns="http://www.w3.org/2000/svg"><path fill-rule="evenodd" clip-rule="evenodd" d="M23 7.66683C17.7072 7.66683 13.4166 11.9574 13.4166 17.2502V28.7502C13.4166 34.0429 17.7072 38.3335 23 38.3335C28.2927 38.3335 32.5833 34.0429 32.5833 28.7502V17.2502C32.5833 11.9574 28.2927 7.66683 23 7.66683ZM9.58331 17.2502C9.58331 9.84034 15.5902 3.8335 23 3.8335C30.4098 3.8335 36.4166 9.84034 36.4166 17.2502V28.7502C36.4166 36.16 30.4098 42.1668 23 42.1668C15.5902 42.1668 9.58331 36.16 9.58331 28.7502V17.2502ZM23 11.5002C24.0585 11.5002 24.9166 12.3583 24.9166 13.4168V17.2502C24.9166 18.3087 24.0585 19.1668 23 19.1668C21.9414 19.1668 21.0833 18.3087 21.0833 17.2502V13.4168C21.0833 12.3583 21.9414 11.5002 23 11.5002Z"/></svg>