<svg width="36" height="36" viewBox="0 0 36 36" fill="none" xmlns="http://www.w3.org/2000/svg">
<g clip-path="url(#clip0_2028_5123)">
<path d="M26.3542 23.5445C30.6174 21.204 33.8774 19.4207 34.1561 19.2814C35.0477 18.8077 35.9672 17.5538 34.1561 16.5786C33.5709 16.2721 30.4223 14.5445 26.3542 12.3154L20.7536 17.9439L26.3542 23.5445Z" fill="#FFD400"/>
<path d="M20.7537 17.9443L2.86511 35.9722C3.28307 36.0279 3.75675 35.9165 4.31403 35.61C5.48431 34.9691 17.9116 28.1703 26.3543 23.545L20.7537 17.9443Z" fill="#FF3333"/>
<path d="M20.7535 17.9444L26.3541 12.3159C26.3541 12.3159 5.56775 0.975363 4.31388 0.306633C3.84019 0.0279948 3.31078 -0.0555966 2.8371 0.0279948L20.7535 17.9444Z" fill="#48FF48"/>
<path d="M20.7536 17.9442L2.83716 0.027832C2.1127 0.195015 1.49969 0.835883 1.49969 2.14548C1.49969 4.23526 1.49969 32.099 1.49969 33.8545C1.49969 35.0526 1.97338 35.9164 2.86502 36L20.7536 17.9442Z" fill="#3BCCFF"/>
</g>
<defs>
<clipPath id="clip0_2028_5123">
<rect width="33.6873" height="36" fill="white" transform="translate(1.49982)"/>
</clipPath>
</defs>
</svg>
