<svg width="36" height="36" viewBox="0 0 36 36" fill="none" xmlns="http://www.w3.org/2000/svg">
<g clip-path="url(#clip0_2028_5098)">
<g clip-path="url(#clip1_2028_5098)">
<path d="M28.728 0H7.27205C3.25355 0 4.95911e-05 3.2535 4.95911e-05 7.272V28.7325C4.95911e-05 32.7465 3.25355 36 7.27205 36H28.7325C32.7465 36 36.0045 32.7465 36.0045 28.728V7.272C36 3.2535 32.7465 0 28.728 0Z" fill="url(#paint0_linear_2028_5098)"/>
<path d="M17.8471 8.27077L18.5761 7.01077C19.0261 6.22327 20.0296 5.95777 20.8171 6.40777C21.6046 6.85777 21.8701 7.86127 21.4201 8.64877L14.3956 20.8078H19.4761C21.1231 20.8078 22.0456 22.7428 21.3301 24.0838H6.43507C5.52607 24.0838 4.79707 23.3548 4.79707 22.4458C4.79707 21.5368 5.52607 20.8078 6.43507 20.8078H10.6111L15.9571 11.5423L14.2876 8.64427C13.8376 7.85677 14.1031 6.86227 14.8906 6.40327C15.6781 5.95327 16.6726 6.21877 17.1316 7.00627L17.8471 8.27077ZM11.5291 25.7713L9.95407 28.5028C9.50407 29.2903 8.50057 29.5558 7.71307 29.1058C6.92557 28.6558 6.66007 27.6523 7.11007 26.8648L8.28007 24.8398C9.60307 24.4303 10.6786 24.7453 11.5291 25.7713ZM25.0921 20.8168H29.3536C30.2626 20.8168 30.9916 21.5458 30.9916 22.4548C30.9916 23.3638 30.2626 24.0928 29.3536 24.0928H26.9866L28.5841 26.8648C29.0341 27.6523 28.7686 28.6468 27.9811 29.1058C27.1936 29.5558 26.1991 29.2903 25.7401 28.5028C23.0491 23.8363 21.0286 20.3443 19.6876 18.0178C18.3151 15.6508 19.2961 13.2748 20.2636 12.4693C21.3391 14.3143 22.9456 17.0998 25.0921 20.8168Z" fill="white"/>
</g>
</g>
<defs>
<linearGradient id="paint0_linear_2028_5098" x1="18.0023" y1="0" x2="18.0023" y2="36" gradientUnits="userSpaceOnUse">
<stop stop-color="#18BFFB"/>
<stop offset="1" stop-color="#2072F3"/>
</linearGradient>
<clipPath id="clip0_2028_5098">
<rect width="36" height="36" fill="white"/>
</clipPath>
<clipPath id="clip1_2028_5098">
<rect width="36" height="36" fill="white"/>
</clipPath>
</defs>
</svg>
